<svg width="28" height="16" viewBox="0 0 28 16" fill="none" xmlns="http://www.w3.org/2000/svg">
<g id="artwork-production" clip-path="url(#clip0_1724_232)">
<path id="Vector" d="M21.7412 7.30806L27.4894 3.981L21.7412 0.67041V7.30806Z" fill="#F5F5F5"/>
<path id="Vector_2" d="M14.7082 7.30806L20.4729 3.981L14.7082 0.67041V7.30806Z" fill="#F5F5F5"/>
<path id="Vector_3" d="M7.69177 7.30806L13.44 3.981L7.69177 0.67041V7.30806Z" fill="#F5F5F5"/>
<path id="Vector_4" d="M0.658813 7.30806L6.42352 3.981L0.658813 0.67041V7.30806Z" fill="#F5F5F5"/>
<path id="Vector_5" d="M6.42352 8.57642L0.658813 11.9035L6.42352 15.2305V8.57642Z" fill="#F5F5F5"/>
<path id="Vector_6" d="M13.44 8.57642L7.69177 11.9035L13.44 15.2305V8.57642Z" fill="#F5F5F5"/>
<path id="Vector_7" d="M20.4729 8.57642L14.7082 11.9035L20.4729 15.2305V8.57642Z" fill="#F5F5F5"/>
<path id="Vector_8" d="M27.4894 8.57642L21.7412 11.9035L27.4894 15.2305V8.57642Z" fill="#F5F5F5"/>
</g>
<defs>
<clipPath id="clip0_1724_232">
<rect width="28" height="14.8235" fill="white" transform="translate(0 0.588135)"/>
</clipPath>
</defs>
</svg>
