<svg width="28" height="28" viewBox="0 0 28 28" fill="none" xmlns="http://www.w3.org/2000/svg">
<g id="Calendly 1" clip-path="url(#clip0_1683_431)">
<path id="Vector" d="M19.0897 17.9353C18.197 18.6834 17.0865 19.6142 15.0633 19.6142H13.8555C12.3936 19.6142 11.0639 19.1128 10.1127 18.2017C9.18378 17.3117 8.67074 16.0947 8.67074 14.7729V13.2098C8.67074 11.8881 9.18257 10.6699 10.1127 9.78097C11.0645 8.86996 12.3936 8.36849 13.8555 8.36849H15.0633C17.0859 8.36849 18.197 9.29929 19.0897 10.0474C20.0156 10.8235 20.8154 11.4936 22.946 11.4936C23.2768 11.4936 23.6015 11.4686 23.9172 11.4203C23.9148 11.4139 23.9123 11.4087 23.9099 11.4029C23.7832 11.1062 23.6341 10.8142 23.4621 10.5326L22.0376 8.19979C20.7309 6.05896 18.3147 4.74072 15.7012 4.74072H12.8517C10.2382 4.74072 7.8221 6.05954 6.51535 8.19979L5.0909 10.5326C3.78415 12.6734 3.78415 15.3099 5.0909 17.4501L6.51535 19.7829C7.8221 21.9238 10.2382 23.2414 12.8517 23.2414H15.7012C18.3147 23.2414 20.7309 21.9226 22.0376 19.7829L23.4621 17.4501C23.6341 17.168 23.7832 16.8771 23.9099 16.5804C23.9123 16.574 23.9148 16.5688 23.9172 16.563C23.6015 16.5147 23.278 16.4897 22.946 16.4897C20.816 16.4891 20.0156 17.1593 19.0897 17.9353Z" fill="#1519BA"/>
<path id="Vector_2" d="M15.0637 9.78369H13.856C11.6312 9.78369 10.1687 11.2863 10.1687 13.2096V14.7727C10.1687 16.696 11.6306 18.1986 13.856 18.1986H15.0637C18.3056 18.1986 18.0509 15.0735 22.9459 15.0735C23.4149 15.0735 23.8784 15.1142 24.3293 15.1933C24.4778 14.3987 24.4778 13.5854 24.3293 12.7902C23.8778 12.8693 23.4149 12.91 22.9459 12.91C18.0509 12.9094 18.3056 9.78369 15.0637 9.78369Z" fill="#1519BA"/>
<path id="Vector_3" d="M27.1407 16.3341C26.3048 15.7512 25.3457 15.3707 24.3287 15.1915C24.3269 15.1991 24.3263 15.2067 24.3244 15.2142C24.2375 15.6721 24.1017 16.1229 23.9158 16.5604C24.7741 16.6919 25.5648 16.9967 26.2408 17.465C26.2384 17.472 26.2366 17.479 26.2342 17.4865C25.8443 18.6832 25.2564 19.8112 24.488 20.8374C23.7287 21.8508 22.8107 22.7432 21.7586 23.4884C19.5749 25.037 16.974 25.8549 14.2362 25.8549C12.5414 25.8549 10.8978 25.5414 9.35083 24.923C7.85697 24.3255 6.5146 23.4698 5.36056 22.379C4.20711 21.2882 3.30235 20.0194 2.6704 18.6064C2.01672 17.1439 1.68475 15.59 1.68475 13.9873C1.68475 12.3846 2.01672 10.8308 2.6704 9.36825C3.30235 7.95578 4.20711 6.68641 5.36056 5.59563C6.514 4.50486 7.85636 3.64969 9.35083 3.05166C10.8972 2.43326 12.5407 2.1197 14.2362 2.1197C16.974 2.1197 19.5749 2.93763 21.7586 4.48624C22.8107 5.23204 23.7281 6.12386 24.488 7.13726C25.2564 8.16404 25.8443 9.29205 26.2342 10.4881C26.2366 10.4957 26.239 10.5027 26.2408 10.5096C25.5654 10.9774 24.7741 11.2834 23.9158 11.4143C24.1017 11.8523 24.2381 12.3043 24.3244 12.7622C24.3263 12.7697 24.3269 12.7767 24.3287 12.7843C25.3457 12.6051 26.3042 12.2246 27.1407 11.6417C27.9423 11.0809 27.7872 10.4474 27.6653 10.0716C25.8986 4.64913 20.5551 0.706055 14.2368 0.706055C6.47778 0.706055 0.188477 6.65266 0.188477 13.9885C0.188477 21.3243 6.47839 27.2709 14.2368 27.2709C20.5551 27.2709 25.8986 23.3273 27.6653 17.9019C27.7878 17.5284 27.9435 16.8955 27.1407 16.3341Z" fill="#1519BA"/>
<path id="Vector_4" d="M23.9171 11.4185C23.6014 11.4668 23.2779 11.4918 22.9459 11.4918C20.8159 11.4918 20.0155 10.8217 19.0897 10.0456C18.197 9.29749 17.0864 8.3667 15.0632 8.3667H13.8554C12.3935 8.3667 11.0639 8.86816 10.1126 9.77918C9.1837 10.6693 8.67065 11.8863 8.67065 13.208V14.7711C8.67065 16.0929 9.18249 17.311 10.1126 18.2C11.0645 19.111 12.3935 19.6124 13.8554 19.6124H15.0632C17.0858 19.6124 18.197 18.6811 19.0897 17.9335C20.0155 17.1575 20.8153 16.4873 22.9459 16.4873C23.2767 16.4873 23.6014 16.5123 23.9171 16.5606C24.103 16.1231 24.2382 15.6717 24.3257 15.2144C24.3275 15.2069 24.3281 15.1993 24.3299 15.1917C23.8785 15.1126 23.4155 15.0719 22.9465 15.0719C18.0515 15.0719 18.3062 18.197 15.0644 18.197H13.8566C11.6318 18.197 10.1693 16.6944 10.1693 14.7711V13.208C10.1693 11.2847 11.6312 9.78209 13.8566 9.78209H15.0644C18.3062 9.78209 18.0521 12.9072 22.9465 12.9072C23.4155 12.9072 23.8791 12.8665 24.3299 12.7874C24.3281 12.7798 24.3275 12.7728 24.3257 12.7653C24.2394 12.3086 24.103 11.8572 23.9171 11.4185Z" fill="#5FC2D6"/>
<path id="Vector_5" d="M23.9171 11.4185C23.6014 11.4668 23.2779 11.4918 22.9459 11.4918C20.8159 11.4918 20.0155 10.8217 19.0897 10.0456C18.197 9.29749 17.0864 8.3667 15.0632 8.3667H13.8554C12.3935 8.3667 11.0639 8.86816 10.1126 9.77918C9.1837 10.6693 8.67065 11.8863 8.67065 13.208V14.7711C8.67065 16.0929 9.18249 17.311 10.1126 18.2C11.0645 19.111 12.3935 19.6124 13.8554 19.6124H15.0632C17.0858 19.6124 18.197 18.6811 19.0897 17.9335C20.0155 17.1575 20.8153 16.4873 22.9459 16.4873C23.2767 16.4873 23.6014 16.5123 23.9171 16.5606C24.103 16.1231 24.2382 15.6717 24.3257 15.2144C24.3275 15.2069 24.3281 15.1993 24.3299 15.1917C23.8785 15.1126 23.4155 15.0719 22.9465 15.0719C18.0515 15.0719 18.3062 18.197 15.0644 18.197H13.8566C11.6318 18.197 10.1693 16.6944 10.1693 14.7711V13.208C10.1693 11.2847 11.6312 9.78209 13.8566 9.78209H15.0644C18.3062 9.78209 18.0521 12.9072 22.9465 12.9072C23.4155 12.9072 23.8791 12.8665 24.3299 12.7874C24.3281 12.7798 24.3275 12.7728 24.3257 12.7653C24.2394 12.3086 24.103 11.8572 23.9171 11.4185Z" fill="#5FC2D6"/>
</g>
<defs>
<clipPath id="clip0_1683_431">
<rect width="28" height="26.6" fill="white" transform="translate(0 0.700195)"/>
</clipPath>
</defs>
</svg>
