<svg width="32" height="34" viewBox="0 0 32 34" fill="none" xmlns="http://www.w3.org/2000/svg">
<g id="Checkmark">
<circle id="Ellipse " cx="13.8003" cy="19.7202" r="12.8803" stroke="url(#paint0_linear_1070_176)" stroke-width="1.84004"/>
<path id="Vector" d="M30.006 4.92293L29.8668 2.66993L28.031 3.98341C25.1008 6.07994 22.0273 9.29278 19.4103 12.7346C17.2908 15.5222 15.4259 18.519 14.1641 21.2755C12.6993 19.7777 11.058 18.5281 9.34209 17.3379L8.45859 16.7252L7.72062 17.5071C7.05656 18.2108 6.38081 18.9865 5.76142 19.6976C5.67225 19.8 5.58424 19.901 5.49761 20.0003L4.55825 21.0768L5.75002 21.8648C6.26131 22.2029 6.81198 22.5445 7.3845 22.8996C9.49529 24.2089 11.9029 25.7023 13.7272 27.8826L14.955 29.3501L15.8056 27.6361C19.3391 20.5154 22.0979 15.1375 29.7052 9.93206L30.2907 9.53145L30.2469 8.82339L30.006 4.92293Z" fill="url(#paint1_linear_1070_176)" stroke="white" stroke-width="2.5"/>
</g>
<defs>
<linearGradient id="paint0_linear_1070_176" x1="13.8003" y1="5.91992" x2="13.8003" y2="33.5205" gradientUnits="userSpaceOnUse">
<stop stop-color="#1C1CBC"/>
<stop offset="1" stop-color="#8F49D8"/>
</linearGradient>
<linearGradient id="paint1_linear_1070_176" x1="17.7194" y1="5" x2="17.7194" y2="27.0805" gradientUnits="userSpaceOnUse">
<stop stop-color="#1C1CBC"/>
<stop offset="1" stop-color="#8F49D8"/>
</linearGradient>
</defs>
</svg>
