<svg width="64" height="64" viewBox="0 0 64 64" fill="none" xmlns="http://www.w3.org/2000/svg">
<g clip-path="url(#clip0_518_835)">
<path d="M31.5317 63.6098C14.1268 63.6098 0 49.3268 0 31.8439C0 14.361 14.1268 0 31.5317 0C48.9366 0 63.0634 14.2829 63.0634 31.8439C63.0634 49.4049 48.8585 63.6098 31.5317 63.6098ZM31.5317 0.780488C14.5951 0.780488 0.780488 14.6732 0.780488 31.8439C0.780488 48.9366 14.5951 62.9073 31.5317 62.9073C48.4683 62.9073 62.2829 49.0146 62.2829 31.8439C62.2829 14.6732 48.4683 0.780488 31.5317 0.780488Z" fill="white"/>
<path d="M19.1667 34.1665V29.8335C19.1667 29.2147 19.4126 28.6212 19.8502 28.1836C20.2878 27.746 20.8812 27.5002 21.5001 27.5002H24.8834C25.1115 27.5001 25.3346 27.4332 25.5251 27.3077L32.5251 22.6923C32.701 22.5765 32.9049 22.5105 33.1153 22.5012C33.3257 22.4919 33.5347 22.5397 33.7201 22.6396C33.9055 22.7395 34.0604 22.8877 34.1684 23.0685C34.2763 23.2493 34.3334 23.4559 34.3334 23.6665V40.3335C34.3334 40.5441 34.2763 40.7508 34.1684 40.9315C34.0604 41.1123 33.9055 41.2605 33.7201 41.3604C33.5347 41.4603 33.3257 41.5081 33.1153 41.4988C32.9049 41.4896 32.701 41.4235 32.5251 41.3077L25.5251 36.6923C25.3346 36.5668 25.1115 36.4999 24.8834 36.4998H21.5001C20.8812 36.4998 20.2878 36.254 19.8502 35.8164C19.4126 35.3788 19.1667 34.7853 19.1667 34.1665Z" stroke="white"/>
<path d="M38.4167 26.75C38.4167 26.75 40.1667 28.5 40.1667 31.4167C40.1667 34.3333 38.4167 36.0833 38.4167 36.0833M41.9167 23.25C41.9167 23.25 44.8334 26.1667 44.8334 31.4167C44.8334 36.6667 41.9167 39.5833 41.9167 39.5833" stroke="white" stroke-linecap="round" stroke-linejoin="round"/>
</g>
<defs>
<clipPath id="clip0_518_835">
<rect width="64" height="64" fill="white"/>
</clipPath>
</defs>
</svg>
